<svg width="63" height="63" viewBox="0 0 63 63" fill="none" xmlns="http://www.w3.org/2000/svg">
<path fill-rule="evenodd" clip-rule="evenodd" d="M46.6487 46.323H61.0312C61.3709 46.323 61.6465 46.0476 61.6465 45.7078V36.5381C61.6465 34.0606 59.6347 32.0493 57.1577 32.0493H43.9196C43.0488 32.0493 42.2356 32.2979 41.5469 32.7278C41.2598 32.6855 40.9666 32.6636 40.6682 32.6636H22.3318C22.0334 32.6636 21.7402 32.6855 21.4531 32.7278C20.7644 32.2979 19.9512 32.0493 19.0804 32.0493H5.84226C3.36484 32.0493 1.35352 34.0606 1.35352 36.5381V45.7078C1.35352 46.0476 1.62902 46.323 1.96875 46.323H16.3513V51.3453C16.3513 51.685 16.6268 51.9605 16.9666 51.9605H46.0334C46.3732 51.9605 46.6487 51.685 46.6487 51.3453V46.323ZM41.5337 33.9729C41.2533 33.9211 40.9639 33.894 40.6682 33.894H22.3318C22.0361 33.894 21.7467 33.9211 21.4663 33.9729C21.4444 33.9783 21.4221 33.9826 21.3998 33.9856C19.2237 34.4194 17.5818 36.3416 17.5818 38.6441V45.7076V50.73H22.9038V45.7078C22.9038 45.3683 23.1794 45.0925 23.5191 45.0925C23.8585 45.0925 24.1343 45.3683 24.1343 45.7078V50.73H38.8657V45.7078C38.8657 45.3683 39.1415 45.0925 39.4809 45.0925C39.8206 45.0925 40.0962 45.3683 40.0962 45.7078V50.73H45.4182V38.6441C45.4182 36.3416 43.7763 34.4194 41.6002 33.9856C41.5779 33.9826 41.5556 33.9783 41.5337 33.9729ZM56.9153 45.0925H60.416V36.5381C60.416 34.7397 58.9555 33.2798 57.1577 33.2798H43.9196C43.7416 33.2798 43.5667 33.2941 43.3964 33.3216C45.3269 34.3141 46.6487 36.3259 46.6487 38.6441V45.0925H55.6849V41.6377C55.6849 41.2983 55.9617 41.0225 56.3001 41.0225C56.6397 41.0225 56.9153 41.2983 56.9153 41.6377V45.0925ZM19.6036 33.3216C19.4333 33.2941 19.2584 33.2798 19.0804 33.2798H5.84226C4.04393 33.2798 2.58398 34.7397 2.58398 36.5381V45.0925H6.08417V41.6377C6.08417 41.2983 6.3598 41.0225 6.69941 41.0225C7.03889 41.0225 7.31464 41.2983 7.31464 41.6377V45.0925H16.3513V38.6441C16.3513 36.3259 17.6731 34.3141 19.6036 33.3216ZM12.4613 16.4376C8.44434 16.4376 5.1831 19.6989 5.1831 23.7158C5.1831 27.7327 8.44434 30.9941 12.4613 30.9941C16.4783 30.9941 19.7395 27.7327 19.7395 23.7158C19.7395 19.6989 16.4783 16.4376 12.4613 16.4376ZM50.5387 16.4376C46.5217 16.4376 43.2605 19.6989 43.2605 23.7158C43.2605 27.7327 46.5217 30.9941 50.5387 30.9941C54.5553 30.9941 57.8173 27.7327 57.8173 23.7158C57.8173 19.6989 54.5553 16.4376 50.5387 16.4376ZM31.5 11.0396C26.0669 11.0396 21.6558 15.4507 21.6558 20.8838C21.6558 26.3169 26.0669 30.728 31.5 30.728C36.9331 30.728 41.3442 26.3169 41.3442 20.8838C41.3442 15.4507 36.9331 11.0396 31.5 11.0396ZM12.4613 17.6681C15.7991 17.6681 18.5091 20.3779 18.5091 23.7158C18.5091 27.0536 15.7991 29.7636 12.4613 29.7636C9.12343 29.7636 6.41357 27.0536 6.41357 23.7158C6.41357 20.3779 9.12343 17.6681 12.4613 17.6681ZM50.5387 17.6681C53.8766 17.6681 56.5868 20.3779 56.5868 23.7158C56.5868 27.0536 53.8766 29.7636 50.5387 29.7636C47.2009 29.7636 44.4909 27.0536 44.4909 23.7158C44.4909 20.3779 47.2009 17.6681 50.5387 17.6681ZM31.5 12.27C36.254 12.27 40.1138 16.1298 40.1138 20.8838C40.1138 25.6378 36.254 29.4976 31.5 29.4976C26.746 29.4976 22.8862 25.6378 22.8862 20.8838C22.8862 16.1298 26.746 12.27 31.5 12.27Z" fill="white"/>
</svg>
