<svg width="55" height="55" viewBox="0 0 55 55" fill="none" xmlns="http://www.w3.org/2000/svg">
<path fill-rule="evenodd" clip-rule="evenodd" d="M44.602 9.63893L41.3557 12.8841C37.7434 9.45953 32.8652 7.35729 27.5 7.35729C16.3827 7.35729 7.35693 16.3829 7.35693 27.5C7.35693 32.8646 9.45907 37.7437 12.8848 41.3552L9.63846 44.6015L6.65761 44.0666C6.48456 44.0354 6.3072 44.0913 6.18292 44.2159L1.33894 49.0595C1.19564 49.2035 1.14515 49.4151 1.20864 49.6074C1.27213 49.8007 1.43863 49.9404 1.63908 49.9705L4.58716 50.4131L5.02931 53.3607C5.05939 53.5616 5.19979 53.7281 5.3924 53.7915C5.58501 53.8548 5.79695 53.8044 5.94025 53.6615L10.7842 48.8168C10.9085 48.6932 10.9642 48.516 10.933 48.342L10.398 45.3621L13.6443 42.1147C17.2567 45.5415 22.1349 47.6426 27.5 47.6426C32.8652 47.6426 37.7434 45.5415 41.3557 42.1147L44.602 45.3621L44.0671 48.342C44.0359 48.516 44.0916 48.6932 44.2158 48.8168L49.0598 53.6615C49.2031 53.8044 49.4151 53.8548 49.6077 53.7915C49.8003 53.7281 49.9407 53.5616 49.9708 53.3607L50.4129 50.4131L53.361 49.9705C53.5614 49.9404 53.7279 49.8007 53.7914 49.6074C53.8549 49.4151 53.8044 49.2035 53.6611 49.0595L48.8172 44.2159C48.6929 44.0913 48.5155 44.0354 48.3425 44.0666L45.3616 44.6015L42.1153 41.3552C45.541 37.7437 47.6431 32.8646 47.6431 27.5C47.6431 22.1353 45.541 17.2562 42.1153 13.6447L45.3616 10.3984L48.3425 10.9334C48.5155 10.9645 48.6929 10.9087 48.8172 10.784L53.6611 5.9404C53.8044 5.79645 53.8549 5.58482 53.7914 5.39254C53.7279 5.19918 53.5614 5.05953 53.361 5.02945L50.4129 4.58687L49.9708 1.63922C49.9407 1.43834 49.8003 1.27184 49.6077 1.20846C49.4151 1.14508 49.2031 1.19556 49.0598 1.33844L44.2158 6.18317C44.0916 6.30671 44.0359 6.48502 44.0671 6.65797L44.602 9.63893ZM7.4042 50.6784L7.05078 48.7083L5.63077 50.1284L5.9337 52.1479L7.4042 50.6784ZM49.3693 50.1284L47.9493 48.7083L47.5959 50.6784L49.0664 52.1479L49.3693 50.1284ZM9.47271 46.287L7.97611 47.7834L8.32953 49.7524L9.82613 48.256L9.47271 46.287ZM45.1739 48.256L46.6705 49.7524L47.024 47.7834L45.5274 46.287L45.1739 48.256ZM50.678 47.5954L48.7089 47.9488L50.1289 49.3689L52.1485 49.066L50.678 47.5954ZM2.85155 49.066L4.87119 49.3689L6.2912 47.9488L4.32205 47.5954L2.85155 49.066ZM5.24738 46.6705L7.21653 47.0239L8.71313 45.5275L6.74398 45.1741L5.24738 46.6705ZM46.2869 45.5275L47.7835 47.0239L49.7527 46.6705L48.2561 45.1741L46.2869 45.5275ZM38.5155 39.2756C35.6317 41.974 31.7574 43.6272 27.5 43.6272C23.2427 43.6272 19.3684 41.974 16.4846 39.2756L14.404 41.3552C17.8202 44.5865 22.4304 46.5684 27.5 46.5684C32.5697 46.5684 37.1798 44.5865 40.5961 41.3552L38.5155 39.2756ZM35.5909 36.3505C33.4569 38.3023 30.6165 39.4936 27.5 39.4936C24.3836 39.4936 21.5432 38.3023 19.4091 36.3505L17.2444 38.515C19.9327 41.0201 23.5387 42.553 27.5 42.553C31.4613 42.553 35.0674 41.0201 37.7557 38.515L35.5909 36.3505ZM41.3556 14.4042L39.2751 16.4849C41.9743 19.3681 43.6275 23.2428 43.6275 27.5C43.6275 31.7571 41.9743 35.6318 39.2751 38.515L41.3556 40.5958C44.5863 37.1797 46.5689 32.5692 46.5689 27.5C46.5689 22.4307 44.5863 17.8202 41.3556 14.4042ZM40.5961 13.6447C37.1798 10.4134 32.5697 8.4315 27.5 8.4315C16.9756 8.4315 8.43115 16.9758 8.43115 27.5C8.43115 32.5692 10.4137 37.1797 13.6444 40.5958L15.725 38.515C13.0258 35.6318 11.3726 31.7571 11.3726 27.5C11.3726 18.599 18.5991 11.3727 27.5 11.3727C31.7574 11.3727 35.6317 13.0259 38.5155 15.7244L40.5961 13.6447ZM34.8306 19.41C32.8926 17.6526 30.3205 16.5805 27.5 16.5805C21.4735 16.5805 16.5806 21.4736 16.5806 27.5C16.5806 30.3209 17.6522 32.8925 19.4099 34.8304L20.2452 33.9947C20.4549 33.7852 20.7952 33.7852 21.0049 33.9947C21.2145 34.2052 21.2145 34.5447 21.0049 34.7552L20.1695 35.5899C22.1075 37.3473 24.6796 38.4194 27.5 38.4194C30.3205 38.4194 32.8926 37.3473 34.8306 35.5899L32.8314 33.5908C31.4069 34.839 29.5412 35.5963 27.5 35.5963C23.0317 35.5963 19.404 31.9687 19.404 27.5C19.404 23.0312 23.0317 19.4036 27.5 19.4036C29.5412 19.4036 31.4069 20.1609 32.8314 21.4091L34.8306 19.41ZM37.7557 16.4849C35.0674 13.9798 31.4613 12.4469 27.5 12.4469C19.1919 12.4469 12.4468 19.192 12.4468 27.5C12.4468 31.4617 13.9802 35.0668 16.4848 37.7555L18.6495 35.591C16.6976 33.4565 15.5064 30.6163 15.5064 27.5C15.5064 20.8806 20.8806 15.5063 27.5 15.5063C30.6165 15.5063 33.4569 16.6976 35.5909 18.6495L37.7557 16.4849ZM38.5153 17.2444L36.3505 19.409C38.3025 21.5434 39.4937 24.3837 39.4937 27.5C39.4937 30.6163 38.3025 33.4565 36.3505 35.591L38.5153 37.7555C41.0198 35.0668 42.5533 31.4617 42.5533 27.5C42.5533 23.5382 41.0198 19.9332 38.5153 17.2444ZM35.5902 20.1695L33.591 22.1686C34.8391 23.593 35.5961 25.4589 35.5961 27.5C35.5961 29.541 34.8391 31.4069 33.591 32.8313L35.5902 34.8304C37.3478 32.8925 38.4195 30.3209 38.4195 27.5C38.4195 24.6791 37.3478 22.1074 35.5902 20.1695ZM32.07 22.1708C30.8417 21.1159 29.2448 20.4778 27.5 20.4778C23.6246 20.4778 20.4782 23.6242 20.4782 27.5C20.4782 31.3757 23.6246 34.5221 27.5 34.5221C29.2448 34.5221 30.8417 33.884 32.07 32.8292L30.1484 30.9085C29.4169 31.4778 28.4978 31.8162 27.5 31.8162C25.1176 31.8162 23.1835 29.8826 23.1835 27.5C23.1835 25.1173 25.1176 23.1837 27.5 23.1837C29.8824 23.1837 31.8166 25.1173 31.8166 27.5C31.8166 28.4979 31.4773 29.4164 30.908 30.1479L32.8296 32.0697C33.8841 30.8419 34.5219 29.2445 34.5219 27.5C34.5219 25.7554 33.8841 24.1581 32.8296 22.9302L31.8545 23.9056C31.6448 24.1151 31.3045 24.1151 31.0948 23.9056C30.8852 23.6951 30.8852 23.3556 31.0948 23.1451L32.07 22.1708ZM30.1406 29.3809C30.5194 28.8503 30.7424 28.2014 30.7424 27.5C30.7424 25.7103 29.2896 24.258 27.5 24.258C25.7105 24.258 24.2577 25.7103 24.2577 27.5C24.2577 29.2896 25.7105 30.742 27.5 30.742C28.201 30.742 28.8503 30.5196 29.381 30.1404L27.1202 27.8802C26.9106 27.6697 26.9106 27.3302 27.1202 27.1197C27.3299 26.9102 27.6702 26.9102 27.8799 27.1197L30.1406 29.3809ZM49.7527 8.32946L47.7835 7.97604L46.2869 9.47243L48.2561 9.82584L49.7527 8.32946ZM45.1739 6.74391L45.5274 8.71295L47.024 7.21657L46.6705 5.24752L45.1739 6.74391ZM50.1289 5.63102L48.7089 7.05114L50.678 7.40456L52.1485 5.93395L50.1289 5.63102ZM47.5959 4.32154L47.9493 6.29166L49.3693 4.87154L49.0664 2.85202L47.5959 4.32154Z" fill="white"/>
</svg>
