<svg width="62" height="62" viewBox="0 0 62 62" fill="none" xmlns="http://www.w3.org/2000/svg">
<path fill-rule="evenodd" clip-rule="evenodd" d="M18.6394 4.53884H15.4171C14.4266 4.53884 13.6225 5.34266 13.6225 6.33272V6.91566H5.39298C3.78243 6.91566 2.47461 8.22299 2.47461 9.83329V53.4241C2.47461 55.0347 3.78243 56.3413 5.39298 56.3413H40.4944C42.105 56.3413 43.4128 55.0347 43.4128 53.4241V51.1424C43.7143 51.0904 44.0037 50.948 44.2362 50.7152L44.9047 50.0466L55.0232 60.1654C55.6941 60.8351 56.7815 60.8351 57.4524 60.1654L59.0242 58.5936C59.6938 57.9228 59.6938 56.8353 59.0242 56.1657L48.9056 46.0464L49.574 45.3777C50.1734 44.7783 50.1734 43.8049 49.574 43.2054L48.5774 42.2094C50.5331 37.3315 49.5365 31.543 45.5888 27.5953C44.9131 26.9189 44.1817 26.3292 43.4128 25.8265V9.83329C43.4128 8.22299 42.105 6.91566 40.4944 6.91566H32.2637V6.33272C32.2637 5.34266 31.4596 4.53884 30.4703 4.53884H27.248C26.6946 2.68501 24.9763 1.33203 22.9431 1.33203C20.9111 1.33203 19.1928 2.68501 18.6394 4.53884ZM48.0495 46.9026L45.7608 49.1903L55.8794 59.3093C56.078 59.5067 56.3977 59.5067 56.5963 59.3093L58.1681 57.7375C58.3654 57.5389 58.3654 57.2192 58.1681 57.0218L48.0495 46.9026ZM13.6225 8.1266H5.39298C4.45087 8.1266 3.68555 8.89131 3.68555 9.83329V53.4241C3.68555 54.3663 4.45087 55.1304 5.39298 55.1304H40.4944C41.4365 55.1304 42.2018 54.3663 42.2018 53.4241V50.8371C42.1534 50.7996 42.1074 50.759 42.0638 50.7152L41.0684 49.7192C37.2515 51.2489 32.8776 50.9719 29.2642 48.8883H7.02775C6.69353 48.8883 6.42228 48.6171 6.42228 48.2829C6.42228 47.9488 6.69353 47.6774 7.02775 47.6774H27.5047C27.1426 47.3836 26.7914 47.0678 26.4536 46.7304C26.0685 46.3455 25.7125 45.943 25.3831 45.5259H7.02775C6.69353 45.5259 6.42228 45.2547 6.42228 44.9205C6.42228 44.5864 6.69353 44.315 7.02775 44.315H24.5331C23.9954 43.4526 23.5643 42.5425 23.2386 41.6031H7.02775C6.69353 41.6031 6.42228 41.3318 6.42228 40.9976C6.42228 40.6635 6.69353 40.3922 7.02775 40.3922H22.8825C22.7094 39.6836 22.5931 38.9637 22.5362 38.2407H7.02775C6.69353 38.2407 6.42228 37.9694 6.42228 37.6352C6.42228 37.301 6.69353 37.0297 7.02775 37.0297H22.4938C22.5011 36.3097 22.5653 35.5901 22.6864 34.8783H9.71845C9.38423 34.8783 9.11298 34.607 9.11298 34.2728C9.11298 33.9386 9.38423 33.6673 9.71845 33.6673H22.9504C23.4432 31.8131 24.3369 30.0443 25.6289 28.4972V24.628C25.6289 22.9353 27.0034 21.5611 28.6963 21.5611H37.1086C38.6829 21.5611 39.9822 22.7501 40.1554 24.2783C40.8553 24.5017 41.5395 24.7833 42.2018 25.1231V9.83329C42.2018 8.89131 41.4365 8.1266 40.4944 8.1266H32.2637V8.70955C32.2637 9.69961 31.4596 10.5034 30.4703 10.5034H15.4171C14.4266 10.5034 13.6225 9.69961 13.6225 8.70955V8.1266ZM7.02775 52.2507H38.8584C39.1927 52.2507 39.4639 51.9795 39.4639 51.6453C39.4639 51.3112 39.1927 51.0398 38.8584 51.0398H7.02775C6.69353 51.0398 6.42228 51.3112 6.42228 51.6453C6.42228 51.9795 6.69353 52.2507 7.02775 52.2507ZM48.0398 43.3841C47.4161 44.5895 46.5988 45.7203 45.5888 46.7304C44.5789 47.7405 43.4479 48.5575 42.243 49.1813L42.9199 49.8589C42.9526 49.8906 42.989 49.9144 43.0277 49.9302L43.0326 49.9319C43.1488 49.9773 43.2856 49.953 43.3801 49.8589L48.7179 44.5215C48.8451 44.3947 48.8451 44.1886 48.7179 44.0617L48.0398 43.3841ZM39.3949 25.3136C35.2365 24.1358 30.5805 25.1818 27.3097 28.4516C25.6144 30.1479 24.5161 32.2174 24.0172 34.3963C24.016 34.4041 24.0136 34.4117 24.0111 34.4192C23.7738 35.4646 23.6745 36.5351 23.712 37.6012C23.712 37.6091 23.7133 37.6169 23.7133 37.6248C23.7532 38.7006 23.9336 39.7723 24.2533 40.8097C24.2558 40.8156 24.257 40.8217 24.2594 40.8276C24.8322 42.6749 25.8493 44.4131 27.3097 45.8741C32.1184 50.682 39.9253 50.682 44.7327 45.8741C49.5401 41.0663 49.5401 33.2595 44.7327 28.4516C43.1996 26.9189 41.3627 25.8747 39.4143 25.3193C39.4082 25.3174 39.401 25.3156 39.3949 25.3136ZM27.9891 29.1308C23.5558 33.5638 23.5558 40.762 27.9891 45.195C32.4223 49.628 39.6201 49.628 44.0534 45.195C48.4866 40.762 48.4866 33.5638 44.0534 29.1308C39.6201 24.6977 32.4223 24.6977 27.9891 29.1308ZM28.8452 29.9871C32.8062 26.0266 39.2363 26.0266 43.1972 29.9871C47.1582 33.9474 47.1582 40.3782 43.1972 44.3387C39.2363 48.2992 32.8062 48.2992 28.8452 44.3387C24.8854 40.3782 24.8854 33.9475 28.8452 29.9871ZM7.02775 31.5159H22.4394C22.7736 31.5159 23.0448 31.2445 23.0448 30.9104C23.0448 30.5762 22.7736 30.3049 22.4394 30.3049H7.02775C6.69353 30.3049 6.42228 30.5762 6.42228 30.9104C6.42228 31.2445 6.69353 31.5159 7.02775 31.5159ZM7.02775 28.1534H22.4394C22.7736 28.1534 23.0448 27.8821 23.0448 27.548C23.0448 27.2138 22.7736 26.9425 22.4394 26.9425H7.02775C6.69353 26.9425 6.42228 27.2138 6.42228 27.548C6.42228 27.8821 6.69353 28.1534 7.02775 28.1534ZM38.8269 23.9272C38.5509 23.2499 37.8848 22.772 37.1086 22.772H28.6963C27.6718 22.772 26.8399 23.6037 26.8399 24.628V27.2241C30.1651 24.1484 34.6637 23.0495 38.8269 23.9272ZM7.02775 24.791H22.4394C22.7736 24.791 23.0448 24.5197 23.0448 24.1856C23.0448 23.8514 22.7736 23.5801 22.4394 23.5801H7.02775C6.69353 23.5801 6.42228 23.8514 6.42228 24.1856C6.42228 24.5197 6.69353 24.791 7.02775 24.791ZM7.02775 21.4301H22.4394C22.7736 21.4301 23.0448 21.1588 23.0448 20.8246C23.0448 20.4905 22.7736 20.2191 22.4394 20.2191H7.02775C6.69353 20.2191 6.42228 20.4905 6.42228 20.8246C6.42228 21.1588 6.69353 21.4301 7.02775 21.4301ZM32.9018 11.6404C30.2317 11.6404 28.0629 13.8088 28.0629 16.4799C28.0629 19.151 30.2317 21.3195 32.9018 21.3195C35.5732 21.3195 37.742 19.151 37.742 16.4799C37.742 13.8088 35.5732 11.6404 32.9018 11.6404ZM32.9018 12.8513C34.9047 12.8513 36.531 14.4772 36.531 16.4799C36.531 18.4825 34.9047 20.1086 32.9018 20.1086C30.8989 20.1086 29.2739 18.4825 29.2739 16.4799C29.2739 14.4772 30.8989 12.8513 32.9018 12.8513ZM7.02775 18.1782H22.4394C22.7736 18.1782 23.0448 17.907 23.0448 17.5728C23.0448 17.2385 22.7736 16.9673 22.4394 16.9673H7.02775C6.69353 16.9673 6.42228 17.2385 6.42228 17.5728C6.42228 17.907 6.69353 18.1782 7.02775 18.1782ZM9.71845 14.8158H22.4394C22.7736 14.8158 23.0448 14.5444 23.0448 14.2103C23.0448 13.8761 22.7736 13.6049 22.4394 13.6049H9.71845C9.38423 13.6049 9.11298 13.8761 9.11298 14.2103C9.11298 14.5444 9.38423 14.8158 9.71845 14.8158ZM19.1068 5.74977H15.4171C15.095 5.74977 14.8334 6.01098 14.8334 6.33272V8.70955C14.8334 9.03117 15.095 9.29249 15.4171 9.29249H30.4703C30.7924 9.29249 31.0527 9.03117 31.0527 8.70955V6.33272C31.0527 6.01098 30.7924 5.74977 30.4703 5.74977H26.7793C26.7733 5.74989 26.766 5.74989 26.76 5.74977H19.1274C19.1202 5.74989 19.1141 5.74989 19.1068 5.74977ZM25.9632 4.53884C25.463 3.36592 24.2981 2.54297 22.9431 2.54297C21.5893 2.54297 20.4243 3.36592 19.9242 4.53884H25.9632Z" fill="white"/>
</svg>
