<svg width="54" height="54" viewBox="0 0 54 54" fill="none" xmlns="http://www.w3.org/2000/svg">
<path fill-rule="evenodd" clip-rule="evenodd" d="M29.9645 1.70016C29.918 1.4734 29.7293 1.30357 29.4983 1.28143C27.8361 1.12006 26.1634 1.12006 24.5012 1.28143C24.2702 1.30357 24.0814 1.4734 24.035 1.70016L23.302 5.26921C21.9499 5.49913 20.6231 5.85456 19.3364 6.33128L16.9169 3.60702C16.764 3.43405 16.5151 3.38132 16.3052 3.47729C14.7843 4.16917 13.3352 5.00553 11.9757 5.9769C11.788 6.11084 11.7089 6.35238 11.7827 6.57176L12.9323 10.0301C11.8766 10.9044 10.9041 11.8768 10.0298 12.9326L6.5715 11.783C6.35212 11.7091 6.1106 11.7882 5.97665 11.976C5.00528 13.3355 4.16891 14.7846 3.47704 16.3055C3.38106 16.5154 3.43379 16.7642 3.60676 16.9172L6.33208 19.3366C5.85536 20.6223 5.49887 21.9501 5.26895 23.3023L1.69989 24.0353C1.47313 24.0817 1.30333 24.2705 1.28118 24.5004C1.11981 26.1636 1.11981 27.8364 1.28118 29.4996C1.30333 29.7295 1.47313 29.9183 1.69989 29.9647L5.26895 30.6977C5.49887 32.0498 5.85536 33.3777 6.33208 34.6633L3.60676 37.0828C3.43379 37.2357 3.38106 37.4846 3.47704 37.6956C4.16891 39.2154 5.00528 40.6645 5.97665 42.024C6.1106 42.2117 6.35212 42.2909 6.5715 42.217L10.0298 41.0674C10.9041 42.1231 11.8766 43.0956 12.9323 43.9699L11.7827 47.4282C11.7089 47.6476 11.788 47.8891 11.9757 48.0231C13.3352 48.9945 14.7843 49.8308 16.3052 50.5227C16.5151 50.6187 16.764 50.5659 16.9169 50.393L19.3364 47.6687C20.6231 48.1454 21.9499 48.5009 23.302 48.7308L24.035 52.2998C24.0814 52.5266 24.2702 52.6964 24.5012 52.7186C26.1634 52.8799 27.8361 52.8799 29.4983 52.7186C29.7293 52.6964 29.918 52.5266 29.9645 52.2998L30.6975 48.7308C32.0496 48.5009 33.3764 48.1454 34.6631 47.6687L37.0825 50.393C37.2355 50.5659 37.4844 50.6187 37.6943 50.5227C39.2151 49.8308 40.6643 48.9945 42.0237 48.0231C42.2115 47.8891 42.2906 47.6476 42.2168 47.4282L41.0672 43.9699C42.1229 43.0956 43.0953 42.1231 43.9697 41.0674L47.428 42.217C47.6473 42.2909 47.8889 42.2117 48.0228 42.024C48.9942 40.6645 49.8316 39.2154 50.5224 37.6956C50.6184 37.4846 50.5657 37.2357 50.3927 37.0828L47.6684 34.6633C48.1452 33.3777 48.5006 32.0498 48.7305 30.6977L52.2996 29.9647C52.5263 29.9183 52.6961 29.7295 52.7183 29.4996C52.8796 27.8364 52.8796 26.1636 52.7183 24.5004C52.6961 24.2705 52.5263 24.0817 52.2996 24.0353L48.7305 23.3023C48.5006 21.9501 48.1452 20.6223 47.6684 19.3366L50.3927 16.9172C50.5657 16.7642 50.6184 16.5154 50.5224 16.3055C49.8316 14.7846 48.9942 13.3355 48.0228 11.976C47.8889 11.7882 47.6473 11.7091 47.428 11.783L43.9697 12.9326C43.0953 11.8768 42.1229 10.9044 41.0672 10.0301L42.2168 6.57176C42.2906 6.35238 42.2115 6.11084 42.0237 5.9769C40.6643 5.00553 39.2151 4.16917 37.6943 3.47729C37.4844 3.38132 37.2355 3.43405 37.0825 3.60702L34.6631 6.33128C33.3764 5.85456 32.0496 5.49913 30.6975 5.26921L29.9645 1.70016ZM29.01 2.29605L29.7377 5.8377C29.782 6.05391 29.956 6.21949 30.1743 6.25324C31.6973 6.48632 33.1886 6.88606 34.6241 7.44504C34.8297 7.5252 35.0628 7.46929 35.2094 7.30476L37.6109 4.60055C38.8238 5.17536 39.9882 5.84823 41.0925 6.61182L39.9524 10.0427C39.8817 10.2516 39.9502 10.4825 40.1222 10.6196C41.3245 11.5826 42.4172 12.6752 43.3801 13.8776C43.5172 14.0495 43.7482 14.118 43.9581 14.0484L47.3879 12.9072C48.1515 14.0115 48.8244 15.1759 49.3992 16.3888L46.696 18.7903C46.5304 18.9369 46.4745 19.17 46.5547 19.3757C47.1137 20.8111 47.5134 22.3035 47.7465 23.8254C47.7802 24.0437 47.9458 24.2177 48.162 24.262L51.7037 24.9898C51.8123 26.3271 51.8123 27.6729 51.7037 29.0102L48.162 29.738C47.9458 29.7823 47.7802 29.9563 47.7465 30.1746C47.5134 31.6965 47.1137 33.1889 46.5547 34.6243C46.4745 34.83 46.5304 35.0631 46.696 35.2097L49.3992 37.6112C48.8244 38.8241 48.1515 39.9885 47.3879 41.0927L43.9581 39.9526C43.7482 39.882 43.5172 39.9505 43.3801 40.1224C42.4172 41.3248 41.3245 42.4174 40.1222 43.3804C39.9502 43.5175 39.8817 43.7484 39.9524 43.9573L41.0925 47.3882C39.9882 48.1518 38.8238 48.8246 37.6109 49.3994L35.2094 46.6952C35.0628 46.5307 34.8297 46.4748 34.6241 46.5549C33.1886 47.1139 31.6973 47.5137 30.1743 47.7468C29.956 47.7805 29.782 47.9461 29.7377 48.1623L29.01 51.7039C27.6726 51.8126 26.3268 51.8126 24.9895 51.7039L24.2618 48.1623C24.2175 47.9461 24.0434 47.7805 23.8251 47.7468C22.3022 47.5137 20.8108 47.1139 19.3754 46.5549C19.1697 46.4748 18.9367 46.5307 18.79 46.6952L16.3885 49.3994C15.1756 48.8246 14.0113 48.1518 12.907 47.3882L14.0471 43.9573C14.1178 43.7484 14.0492 43.5175 13.8773 43.3804C12.675 42.4174 11.5823 41.3248 10.6194 40.1224C10.4823 39.9505 10.2513 39.882 10.0414 39.9526L6.61156 41.0927C5.84797 39.9885 5.17508 38.8241 4.60028 37.6112L7.3045 35.2097C7.46903 35.0631 7.52492 34.83 7.44477 34.6243C6.88578 33.1889 6.48607 31.6965 6.25298 30.1746C6.21923 29.9563 6.05364 29.7823 5.83743 29.738L2.29579 29.0102C2.18716 27.6729 2.18716 26.3271 2.29579 24.9898L5.83743 24.262C6.05364 24.2177 6.21923 24.0437 6.25298 23.8254C6.48607 22.3035 6.88578 20.8111 7.44477 19.3757C7.52492 19.17 7.46903 18.9369 7.3045 18.7903L4.60028 16.3888C5.17508 15.1759 5.84797 14.0115 6.61156 12.9072L10.0414 14.0484C10.2513 14.118 10.4823 14.0495 10.6194 13.8776C11.5823 12.6752 12.675 11.5826 13.8773 10.6196C14.0492 10.4825 14.1178 10.2516 14.0471 10.0427L12.907 6.61182C14.0113 5.84823 15.1756 5.17536 16.3885 4.60055L18.79 7.30476C18.9367 7.46929 19.1697 7.5252 19.3754 7.44504C20.8108 6.88606 22.3022 6.48632 23.8251 6.25324C24.0434 6.21949 24.2175 6.05391 24.2618 5.8377L24.9895 2.29605C26.3268 2.18741 27.6726 2.18741 29.01 2.29605ZM26.9997 11.918C18.6761 11.918 11.9177 18.6764 11.9177 27C11.9177 35.3236 18.6761 42.082 26.9997 42.082C35.3233 42.082 42.0818 35.3236 42.0818 27C42.0818 18.6764 35.3233 11.918 26.9997 11.918ZM26.9997 12.9726C34.7411 12.9726 41.0271 19.2586 41.0271 27C41.0271 34.7425 34.7411 41.0273 26.9997 41.0273C19.2583 41.0273 12.9724 34.7425 12.9724 27C12.9724 19.2586 19.2583 12.9726 26.9997 12.9726ZM26.9997 14.3627C20.0251 14.3627 14.3625 20.0253 14.3625 27C14.3625 33.9746 20.0251 39.6373 26.9997 39.6373C33.9744 39.6373 39.637 33.9746 39.637 27C39.637 20.0253 33.9744 14.3627 26.9997 14.3627ZM26.9997 15.4174C33.3922 15.4174 38.5823 20.6075 38.5823 27C38.5823 33.3925 33.3922 38.5826 26.9997 38.5826C20.6073 38.5826 15.4172 33.3925 15.4172 27C15.4172 20.6075 20.6073 15.4174 26.9997 15.4174ZM33.2372 29.8065C33.2372 28.3521 32.0559 27.1719 30.6015 27.1719H23.398C21.9436 27.1719 20.7623 28.3521 20.7623 29.8065V34.7962C20.7623 35.0884 20.9986 35.3236 21.2897 35.3236H32.7098C33.0009 35.3236 33.2372 35.0884 33.2372 34.7962V29.8065ZM30.6627 34.2689H32.1825V29.8065C32.1825 28.9343 31.4737 28.2266 30.6015 28.2266H23.398C22.5257 28.2266 21.817 28.9343 21.817 29.8065V34.2689H23.3368V32.5814C23.3368 32.2903 23.5731 32.054 23.8641 32.054C24.1552 32.054 24.3915 32.2903 24.3915 32.5814V34.2689H29.608V32.5814C29.608 32.2903 29.8442 32.054 30.1353 32.054C30.4264 32.054 30.6627 32.2903 30.6627 32.5814V34.2689ZM26.9997 18.6764C24.7079 18.6764 22.8464 20.5369 22.8464 22.8287C22.8464 25.1216 24.7079 26.9821 26.9997 26.9821C29.2916 26.9821 31.1531 25.1216 31.1531 22.8287C31.1531 20.5369 29.2916 18.6764 26.9997 18.6764ZM26.9997 19.7311C28.7094 19.7311 30.0984 21.1191 30.0984 22.8287C30.0984 24.5394 28.7094 25.9274 26.9997 25.9274C25.2901 25.9274 23.9011 24.5394 23.9011 22.8287C23.9011 21.1191 25.2901 19.7311 26.9997 19.7311Z" fill="white"/>
</svg>
