<svg width="61" height="61" viewBox="0 0 61 61" fill="none" xmlns="http://www.w3.org/2000/svg">
<path fill-rule="evenodd" clip-rule="evenodd" d="M36.7894 4.08652C36.7859 4.08772 36.7811 4.09009 36.7775 4.09247L19.5784 13.1948C19.3615 11.8128 18.1642 10.7536 16.7214 10.7536H4.20209C2.6068 10.7536 1.31055 12.0499 1.31055 13.6452V32.7994C1.31055 34.3959 2.6068 35.6921 4.20209 35.6921H6.03448L12.1309 48.5855C12.1345 48.5927 12.1369 48.5986 12.1404 48.6058L16.2496 57.2983C16.9061 58.6851 18.5633 59.2784 19.9489 58.6231L23.896 56.7574C25.2781 56.1033 25.8726 54.4532 25.2256 53.0688C25.2221 53.0616 25.2185 53.0545 25.2149 53.0474L21.132 44.4097L22.3281 43.1539C22.9084 42.5463 22.8845 41.5825 22.2769 41.0034L17.2599 36.2211L17.0037 35.6778C18.3179 35.5504 19.3758 34.5412 19.5784 33.2509L36.569 42.2437C36.6762 42.3998 36.8573 42.5034 37.0611 42.5034L40.3911 44.2655C40.5757 44.3632 40.7973 44.3572 40.976 44.25C41.1559 44.1416 41.2655 43.9486 41.2655 43.7389V33.8895C45.5522 32.243 48.5986 28.0862 48.5986 23.2229C48.5986 18.3596 45.5522 14.2016 41.2655 12.5562V2.70567C41.2655 2.49718 41.1559 2.30418 40.976 2.19576C40.7973 2.08854 40.5757 2.08258 40.3911 2.18027L36.7894 4.08652ZM14.4708 50.7479L17.3266 56.7896C17.7019 57.5807 18.6479 57.9202 19.4402 57.5461L23.3861 55.6804C24.0378 55.3718 24.3821 54.6772 24.2761 53.9993C20.933 54.5628 17.6662 53.3023 14.4708 50.7479ZM16.2258 36.8204L15.692 35.6921H7.35336L13.1674 47.991C16.6356 51.3997 20.155 53.3631 23.8114 52.8651L19.8619 44.5121C19.8607 44.5098 19.8596 44.5074 19.8584 44.5038L16.2353 36.8407C16.2317 36.8335 16.2281 36.8276 16.2258 36.8204ZM18.6765 39.2175L20.5863 43.2552L21.4656 42.3319C21.5919 42.2008 21.5871 41.9911 21.4548 41.8648L18.6765 39.2175ZM37.6568 4.97412V35.0964C37.6568 35.4253 37.3899 35.6921 37.0611 35.6921C36.7322 35.6921 36.4654 35.4253 36.4654 35.0964V5.60557L19.6141 14.5244V31.9213L36.4654 40.8402V37.2195C36.4654 36.8907 36.7322 36.6238 37.0611 36.6238C37.3899 36.6238 37.6568 36.8907 37.6568 37.2195V41.4705L40.0741 42.75V33.4833C40.0741 33.4761 40.0741 33.4678 40.0741 33.4606V12.9851C40.0741 12.9768 40.0741 12.9696 40.0741 12.9625V3.69574L37.6568 4.97412ZM45.5069 36.2176L47.0439 41.9518C47.1285 42.2699 47.4549 42.4581 47.773 42.3736C48.0899 42.2878 48.2794 41.9613 48.1936 41.6432L46.6579 35.909C46.5721 35.5921 46.2456 35.4026 45.9275 35.4884C45.6106 35.573 45.4212 35.8994 45.5069 36.2176ZM50.6372 32.2871L54.8345 36.4844C55.0668 36.7168 55.4445 36.7168 55.6768 36.4844C55.9103 36.2521 55.9103 35.8744 55.6768 35.6421L51.4795 31.4436C51.2472 31.2113 50.8695 31.2113 50.6372 31.4436C50.4048 31.6771 50.4048 32.0536 50.6372 32.2871ZM5.57459 11.945H4.20209C3.26446 11.945 2.50195 12.7063 2.50195 13.6452V32.7994C2.50195 33.7382 3.26446 34.5007 4.20209 34.5007H6.40262C6.40857 34.5007 6.41453 34.5007 6.42049 34.5007H16.0602C16.0661 34.5007 16.0721 34.5007 16.0768 34.5007H16.7214C17.6602 34.5007 18.4227 33.7382 18.4227 32.7994V32.2859C18.4215 32.2811 18.4215 32.2764 18.4227 32.2728V14.173C18.4215 14.1682 18.4215 14.1646 18.4227 14.1599V13.6452C18.4227 12.7063 17.6602 11.945 16.7214 11.945H6.766V23.5017C6.766 23.8305 6.49793 24.0974 6.1703 24.0974C5.84147 24.0974 5.57459 23.8305 5.57459 23.5017V11.945ZM41.2655 13.8429V32.6016C44.8791 31.023 47.4072 27.4154 47.4072 23.2229C47.4072 19.0291 44.8791 15.4227 41.2655 13.8429ZM5.57459 25.6462V28.5937C5.57459 28.9226 5.84147 29.1894 6.1703 29.1894C6.49793 29.1894 6.766 28.9226 6.766 28.5937V25.6462C6.766 25.3174 6.49793 25.0505 6.1703 25.0505C5.84147 25.0505 5.57459 25.3174 5.57459 25.6462ZM53.157 23.8186H59.0938C59.4226 23.8186 59.6895 23.5517 59.6895 23.2229C59.6895 22.8941 59.4226 22.6272 59.0938 22.6272H53.157C52.8281 22.6272 52.5613 22.8941 52.5613 23.2229C52.5613 23.5517 52.8281 23.8186 53.157 23.8186ZM51.4795 15.001L55.6768 10.8037C55.9103 10.5713 55.9103 10.1937 55.6768 9.96134C55.4445 9.72783 55.0668 9.72783 54.8345 9.96134L50.6372 14.1587C50.4048 14.391 50.4048 14.7687 50.6372 15.001C50.8695 15.2333 51.2472 15.2333 51.4795 15.001ZM46.2361 10.4236L47.7718 4.68937C47.8576 4.37126 47.6682 4.04482 47.3512 3.95904C47.0331 3.87445 46.7067 4.06269 46.6209 4.3808L45.0852 10.115C44.9994 10.432 45.1888 10.7596 45.5058 10.8442C45.8239 10.93 46.1503 10.7405 46.2361 10.4236Z" fill="white"/>
</svg>
