<svg width="54" height="54" viewBox="0 0 54 54" fill="none" xmlns="http://www.w3.org/2000/svg">
<path fill-rule="evenodd" clip-rule="evenodd" d="M42.7231 41.1117C46.5452 40.2564 49.4055 36.8402 49.4055 32.7607C49.4055 28.0389 45.5714 24.204 40.8487 24.204C37.5783 24.204 34.7339 26.0423 33.2941 28.7413H11.9645C7.8965 28.7413 4.59375 32.0446 4.59375 36.1125V52.3125C4.59375 52.6036 4.82989 52.8398 5.12109 52.8398H42.1958C42.4871 52.8398 42.7231 52.6036 42.7231 52.3125V41.1117ZM32.8201 29.796H11.9645C8.47858 29.796 5.64844 32.6268 5.64844 36.1125V51.7852H12.9514V45.1216C12.9514 44.8306 13.1877 44.5943 13.4788 44.5943C13.7699 44.5943 14.0061 44.8306 14.0061 45.1216V51.7852H33.3109V45.1216C33.3109 44.8306 33.5471 44.5943 33.8382 44.5943C34.1292 44.5943 34.3656 44.8306 34.3656 45.1216V51.7852H41.6684V41.2794C41.3982 41.3047 41.125 41.3184 40.8487 41.3184C36.1261 41.3184 32.2917 37.4836 32.2917 32.7607C32.2917 31.7187 32.4785 30.7199 32.8201 29.796ZM40.8487 25.2587C44.9893 25.2587 48.3508 28.62 48.3508 32.7607C48.3508 36.9014 44.9893 40.2638 40.8487 40.2638C36.7081 40.2638 33.3464 36.9014 33.3464 32.7607C33.3464 28.62 36.7081 25.2587 40.8487 25.2587ZM36.5244 32.9157L39.6389 36.7421C39.7454 36.8729 39.9082 36.9457 40.0767 36.9362C40.2452 36.9267 40.3991 36.8371 40.4908 36.6957L45.2069 29.3994C45.3649 29.1547 45.2948 28.8278 45.0503 28.6696C44.8058 28.5114 44.4792 28.582 44.3212 28.8267L39.9989 35.5134L37.3424 32.2502C37.1587 32.0245 36.8263 31.9908 36.6006 32.1743C36.3748 32.3578 36.3407 32.69 36.5244 32.9157ZM23.6585 1.16016C16.8705 1.16016 11.3596 6.6709 11.3596 13.4589C11.3596 20.2468 16.8705 25.7576 23.6585 25.7576C30.4465 25.7576 35.9573 20.2468 35.9573 13.4589C35.9573 6.6709 30.4465 1.16016 23.6585 1.16016ZM23.6585 2.21484C29.8643 2.21484 34.9026 7.25308 34.9026 13.4589C34.9026 19.6646 29.8643 24.7029 23.6585 24.7029C17.4526 24.7029 12.4143 19.6646 12.4143 13.4589C12.4143 7.25308 17.4526 2.21484 23.6585 2.21484Z" fill="white"/>
</svg>
